<?xml version="1.0" encoding="utf-8"?>
<!-- Svg Vector Icons : http://www.onlinewebfonts.com/icon -->
<!DOCTYPE svg PUBLIC "-//W3C//DTD SVG 1.1//EN" "http://www.w3.org/Graphics/SVG/1.1/DTD/svg11.dtd">
<svg version="1.1" xmlns="http://www.w3.org/2000/svg" xmlns:xlink="http://www.w3.org/1999/xlink" x="0px" y="0px" viewBox="0 0 1000 1000" enable-background="new 0 0 1000 1000" xml:space="preserve">
<metadata> Svg Vector Icons : http://www.onlinewebfonts.com/icon </metadata>
<g><g transform="translate(0.000000,511.000000) scale(0.100000,-0.100000)"><path d="M594.8,3207c-195.6-63.3-354.8-201.4-444.9-393.1L100,2706.5V107.9v-2598.6l51.8-109.3c71-151.5,187.9-272.3,339.4-347.1l126.6-61.4H5000h4382.2l126.6,61.4c151.5,74.8,268.5,195.6,339.5,347.1l51.8,109.3V107.9v2598.6l-61.4,126.6c-74.8,151.5-195.6,268.5-347.1,339.4l-109.3,51.8l-4353.4,3.8C1465.5,3230,660,3226.2,594.8,3207z M8925.8,2411.1c49.9-23,99.7-67.1,134.2-118.9l53.7-82.5l5.8-767.1c5.7-820.8,1.9-866.9-86.3-972.3c-95.9-113.2-101.6-113.2-968.5-113.2c-786.3,0-792.1,0-868.8,44.1c-46,26.9-95.9,76.7-124.7,128.5l-47.9,86.3v767.1c0,421.9,5.8,790.1,15.4,818.9c19.2,71,124.6,187.9,195.6,218.6c44.1,19.2,235.9,24.9,834.2,24.9C8791.5,2447.6,8851,2443.7,8925.8,2411.1z M4160,2100.5c55.6-11.5,109.3-28.8,117-36.4c9.6-7.7,5.8-78.6-5.8-157.3l-23-143.8l-80.5,28.8c-115.1,42.2-335.6,40.3-400.8-1.9c-59.5-38.4-69-107.4-17.3-151.5c17.3-17.3,80.6-53.7,138.1-82.5c266.6-134.2,345.2-224.4,345.2-400.8c0-207.1-134.2-364.4-370.1-437.3c-113.2-34.5-164.9-38.4-347.1-28.8c-174.5,7.7-316.4,32.6-352.9,63.3c-3.8,1.9,3.8,71,17.3,151.5c26.9,164.9,3.8,155.3,209,97.8c124.7-36.4,299.2-38.4,364.4-5.8c24.9,13.4,59.5,46,74.8,74.8c28.8,47.9,26.8,55.6-15.3,99.7c-24.9,26.8-111.2,82.5-191.8,124.7c-211,109.3-308.8,224.4-308.8,360.6C3312.3,1977.7,3720.8,2192.5,4160,2100.5z M1546,2090.9c34.5-7.7,74.8-32.6,90.1-55.6c15.3-24.9,67.1-228.2,115.1-452.6c46-224.4,88.2-410.4,92.1-414.2c3.8-3.8,55.6,120.8,117,276.2c61.4,155.3,143.8,366.3,182.2,466l72.9,182.2l193.7,5.7c132.3,3.8,193.7-1.9,193.7-15.3c0-11.5-130.4-327.9-291.5-701.9l-289.6-678.9h-203.3h-203.3L1454,1283.5c-88.2,318.4-168.8,592.6-176.4,609.9c-15.3,30.7-237.8,134.2-347.1,161.1c-30.7,7.7-53.7,21.1-53.7,30.7C876.7,2104.3,1454,2108.1,1546,2090.9z M3141.6,2092.8c5.8-3.8-42.2-316.4-107.4-694.3l-117-686.6l-186-5.7c-161.1-3.8-186-1.9-186,24.9c0,30.7,201.4,1238.9,220.5,1329c9.6,40.3,19.2,42.2,189.9,42.2C3053.4,2102.4,3137.8,2098.5,3141.6,2092.8z M5423.8,1421.6c82.5-368.2,151.5-682.7,151.5-694.2c0-19.2-46-24.9-172.6-24.9h-172.6l-11.5,53.7c-34.5,159.2-13.4,147.7-280,153.4l-239.7,5.8l-38.4-101.7L4622.2,712l-205.2-5.7c-113.1-1.9-201.4,1.9-195.6,11.5c3.8,7.7,126.6,281.9,270.4,609.9c145.8,326,280,625.2,299.2,663.6c46,90.1,107.4,109.3,322.2,105.5l161.1-3.8L5423.8,1421.6z M6751-1332.4c23-13.4,47.9-32.6,55.6-44.1c7.7-11.5,15.3-168.8,15.3-351c0-318.3-1.9-329.9-42.2-358.6c-38.4-26.8-349-30.7-2934.3-30.7c-2867.1,0-2892.1,0-2930.4,38.4c-34.5,34.5-38.4,63.3-38.4,360.5c0,341.4,3.8,358.6,95.9,393.1c15.3,5.8,1313.7,11.5,2882.5,11.5C5970.4-1311.3,6720.3-1317.1,6751-1332.4z"/><path d="M4988.5,1669c-7.7-19.2-49.9-130.4-95.9-247.4l-80.5-211l143.8-5.8c80.6-3.8,149.6-1.9,153.4,3.8c7.7,7.7-88.2,473.7-101.6,489C5003.8,1701.6,4994.2,1688.1,4988.5,1669z"/></g></g>
</svg>