<svg xmlns="http://www.w3.org/2000/svg" width="15.64" height="13.409" viewBox="0 0 15.64 13.409">
  <g id="Icon_ionic-ios-eye-off" data-name="Icon ionic-ios-eye-off" transform="translate(-2.252 -4.499)">
    <path id="Path_25" data-name="Path 25" d="M5.351,4.643a.5.5,0,0,0-.7.7l12.413,12.42a.492.492,0,0,0,.478.126.484.484,0,0,0,.223-.129.5.5,0,0,0,0-.7Z" transform="translate(-1.134)" fill="#e32929"/>
    <g id="Group_11" data-name="Group 11" transform="translate(2.252 6.176)">
      <path id="Path_26" data-name="Path 26" d="M10.219,17.883A3.139,3.139,0,0,1,7.233,13.4L5.369,11.531A24.492,24.492,0,0,0,2.4,14.37a.552.552,0,0,0,0,.744c2.266,2.5,4.263,4.658,7.671,4.658a6.723,6.723,0,0,0,2.874-.67L11.42,17.582A3.173,3.173,0,0,1,10.219,17.883Z" transform="translate(-2.252 -9.716)" fill="#e32929"/>
      <path id="Path_27" data-name="Path 27" d="M22.765,13.252a.548.548,0,0,0,.017-.723c-1.826-2.217-4.358-4.654-7.7-4.654a6.536,6.536,0,0,0-2.863.663l1.526,1.526a3.077,3.077,0,0,1,1.2-.3,3.139,3.139,0,0,1,2.985,4.483L19.8,16.115A23.1,23.1,0,0,0,22.765,13.252Z" transform="translate(-7.27 -7.875)" fill="#e32929"/>
      <path id="Path_28" data-name="Path 28" d="M13.508,17.513a2.243,2.243,0,0,0,2.057,2.057,2.183,2.183,0,0,0,.817-.091l-2.786-2.786A2.284,2.284,0,0,0,13.508,17.513Z" transform="translate(-7.915 -12.314)" fill="#e32929"/>
      <path id="Path_29" data-name="Path 29" d="M21.743,17.862c0-.045,0-.091,0-.136a1.548,1.548,0,0,1-.635.136c-.038,0-.073,0-.108,0l.649.653A2.233,2.233,0,0,0,21.743,17.862Z" transform="translate(-11.688 -12.834)" fill="#e32929"/>
      <path id="Path_30" data-name="Path 30" d="M17.345,14.094a1.641,1.641,0,0,1,.108-.59c-.035,0-.07,0-.108,0a2.209,2.209,0,0,0-.646.1l.653.653C17.349,14.2,17.345,14.146,17.345,14.094Z" transform="translate(-9.525 -10.707)" fill="#e32929"/>
    </g>
  </g>
</svg>
