<svg width="414" height="896" viewBox="0 0 414 896" fill="none" xmlns="http://www.w3.org/2000/svg">
<g clip-path="url(#clip0)">
<rect width="414" height="896" fill="white"/>
<path d="M41.1341 29.2563C43.8221 29.2563 45.4187 27.1543 45.4187 23.5947C45.4187 22.2544 45.1624 21.1265 44.6717 20.2549C43.9612 18.8999 42.7381 18.1675 41.1927 18.1675C38.8929 18.1675 37.2669 19.7129 37.2669 21.8809C37.2669 23.917 38.7317 25.3965 40.7459 25.3965C41.9837 25.3965 42.9871 24.8179 43.4852 23.8145H43.5071C43.5071 23.8145 43.5364 23.8145 43.5437 23.8145C43.5584 23.8145 43.6097 23.8145 43.6097 23.8145C43.6097 26.2314 42.6941 27.6743 41.1487 27.6743C40.2405 27.6743 39.5374 27.1763 39.2957 26.3779H37.4134C37.7283 28.1138 39.2005 29.2563 41.1341 29.2563ZM41.2 23.895C39.9842 23.895 39.1199 23.0308 39.1199 21.8223C39.1199 20.6431 40.0281 19.7422 41.2073 19.7422C42.3865 19.7422 43.2947 20.6577 43.2947 21.8516C43.2947 23.0308 42.4085 23.895 41.2 23.895ZM48.4366 27.8794C49.1324 27.8794 49.6085 27.3813 49.6085 26.7222C49.6085 26.0557 49.1324 25.5649 48.4366 25.5649C47.7481 25.5649 47.2647 26.0557 47.2647 26.7222C47.2647 27.3813 47.7481 27.8794 48.4366 27.8794ZM48.4366 22.3862C49.1324 22.3862 49.6085 21.8955 49.6085 21.2363C49.6085 20.5698 49.1324 20.0791 48.4366 20.0791C47.7481 20.0791 47.2647 20.5698 47.2647 21.2363C47.2647 21.8955 47.7481 22.3862 48.4366 22.3862ZM56.6107 29H58.4198V27.0298H59.848V25.4331H58.4198V18.4312H55.7538C53.8861 21.2437 52.3993 23.5947 51.4472 25.3452V27.0298H56.6107V29ZM53.1977 25.3672C54.4281 23.1992 55.5268 21.4634 56.5375 19.9692H56.64V25.4771H53.1977V25.3672ZM63.8767 29H65.7663V18.4312H63.884L61.1228 20.3647V22.1812L63.7521 20.3354H63.8767V29Z" fill="black"/>
<rect opacity="0.35" x="373.833" y="18.8334" width="21" height="10.3333" rx="2.16667" stroke="black"/>
<path opacity="0.4" d="M396.333 22V26C397.138 25.6612 397.661 24.8731 397.661 24C397.661 23.1269 397.138 22.3388 396.333 22" fill="black"/>
<rect x="375.333" y="20.3334" width="18" height="7.33333" rx="1.33333" fill="black"/>
<path fill-rule="evenodd" clip-rule="evenodd" d="M360.667 20.6152C362.892 20.6153 365.031 21.4694 366.644 23.001C366.765 23.1192 366.959 23.1177 367.079 22.9976L368.239 21.8273C368.3 21.7664 368.334 21.6839 368.333 21.598C368.333 21.5122 368.298 21.4301 368.237 21.3699C364.005 17.3176 357.329 17.3176 353.097 21.3699C353.035 21.43 353.001 21.5121 353 21.598C352.999 21.6838 353.033 21.7663 353.094 21.8273L354.255 22.9976C354.374 23.1179 354.568 23.1194 354.69 23.001C356.302 21.4693 358.442 20.6152 360.667 20.6152ZM360.667 24.4227C361.889 24.4227 363.068 24.8766 363.974 25.6964C364.097 25.8127 364.29 25.8102 364.409 25.6907L365.569 24.5204C365.63 24.459 365.663 24.3757 365.663 24.2892C365.662 24.2027 365.626 24.1201 365.564 24.0599C362.805 21.4955 358.532 21.4955 355.773 24.0599C355.71 24.1201 355.675 24.2027 355.674 24.2893C355.673 24.3758 355.707 24.4591 355.768 24.5204L356.927 25.6907C357.047 25.8102 357.24 25.8127 357.362 25.6964C358.268 24.8772 359.446 24.4233 360.667 24.4227ZM362.989 26.9846C362.991 27.0714 362.957 27.155 362.895 27.2158L360.89 29.2378C360.831 29.2972 360.751 29.3307 360.667 29.3307C360.583 29.3307 360.503 29.2972 360.445 29.2378L358.439 27.2158C358.377 27.155 358.343 27.0713 358.345 26.9845C358.347 26.8977 358.384 26.8156 358.449 26.7574C359.729 25.6751 361.605 25.6751 362.886 26.7574C362.95 26.8156 362.988 26.8978 362.989 26.9846Z" fill="black"/>
<path fill-rule="evenodd" clip-rule="evenodd" d="M347 18.6666H346C345.448 18.6666 345 19.1143 345 19.6666V28.3333C345 28.8856 345.448 29.3333 346 29.3333H347C347.552 29.3333 348 28.8856 348 28.3333V19.6666C348 19.1143 347.552 18.6666 347 18.6666ZM341.333 21H342.333C342.886 21 343.333 21.4477 343.333 22V28.3333C343.333 28.8856 342.886 29.3333 342.333 29.3333H341.333C340.781 29.3333 340.333 28.8856 340.333 28.3333V22C340.333 21.4477 340.781 21 341.333 21ZM337.667 23.3333H336.667C336.114 23.3333 335.667 23.781 335.667 24.3333V28.3333C335.667 28.8856 336.114 29.3333 336.667 29.3333H337.667C338.219 29.3333 338.667 28.8856 338.667 28.3333V24.3333C338.667 23.781 338.219 23.3333 337.667 23.3333ZM333 25.3333H332C331.448 25.3333 331 25.781 331 26.3333V28.3333C331 28.8856 331.448 29.3333 332 29.3333H333C333.552 29.3333 334 28.8856 334 28.3333V26.3333C334 25.781 333.552 25.3333 333 25.3333Z" fill="black"/>
<path fill-rule="evenodd" clip-rule="evenodd" d="M25.9665 75.8649L16.3053 66.9357C15.8982 66.5598 15.8982 65.9526 16.3053 65.5757L25.9665 56.6465C26.5541 56.1027 27.5102 56.1027 28.0989 56.6465C28.6866 57.1903 28.6866 58.0729 28.0989 58.6167L19.8343 66.2562L28.0989 73.8937C28.6866 74.4385 28.6866 75.3211 28.0989 75.8649C27.5102 76.4087 26.5541 76.4087 25.9665 75.8649" fill="black"/>
<path d="M40.4885 72.7273C43.0369 72.7273 44.5476 71.4739 44.5476 69.3655C44.5476 67.78 43.51 66.6594 41.8748 66.4519V66.3191C43.0286 66.1116 43.9417 64.9827 43.9417 63.7375C43.9417 61.9031 42.5969 60.7493 40.3972 60.7493H35.8152V72.7273H40.4885ZM37.3093 62.0691H40.0818C41.5676 62.0691 42.4309 62.7747 42.4309 63.9949C42.4309 65.2649 41.5095 65.9124 39.7 65.9124H37.3093V62.0691ZM37.3093 71.4075V67.199H40.1233C42.0325 67.199 43.012 67.9045 43.012 69.2908C43.012 70.677 42.0657 71.4075 40.2644 71.4075H37.3093ZM49.1533 71.6316C48.1157 71.6316 47.3437 71.1003 47.3437 70.1873C47.3437 69.2908 47.9414 68.8176 49.3027 68.7263L51.7099 68.5686V69.3904C51.7099 70.6687 50.6225 71.6316 49.1533 71.6316ZM48.8877 72.885C50.083 72.885 51.0625 72.3621 51.6435 71.4075H51.7763V72.7273H53.1377V66.6013C53.1377 64.7419 51.9174 63.6213 49.7343 63.6213C47.8252 63.6213 46.414 64.5676 46.2231 66.0037H47.6674C47.8667 65.2981 48.6137 64.8914 49.6845 64.8914C51.021 64.8914 51.7099 65.4973 51.7099 66.6013V67.4148L49.1284 67.5725C47.0449 67.697 45.8662 68.6184 45.8662 70.2205C45.8662 71.8557 47.1528 72.885 48.8877 72.885ZM62.7736 66.5183C62.5246 64.9246 61.1965 63.6213 59.0216 63.6213C56.5148 63.6213 54.9211 65.4309 54.9211 68.22C54.9211 71.0671 56.5231 72.885 59.0299 72.885C61.1798 72.885 62.5163 71.6731 62.7736 70.0295H61.3293C61.0636 71.0422 60.2253 71.5984 59.0216 71.5984C57.4279 71.5984 56.3986 70.2869 56.3986 68.22C56.3986 66.1946 57.4113 64.908 59.0216 64.908C60.3083 64.908 61.0968 65.6301 61.3293 66.5183H62.7736ZM66.1176 67.6887H65.9847V60.2263H64.557V72.7273H65.9847V69.3323L66.8397 68.5354L70.1932 72.7273H72.0111L67.9022 67.614L71.7538 63.7791H70.0023L66.1176 67.6887Z" fill="black"/>
<path fill-rule="evenodd" clip-rule="evenodd" d="M376 67C376 68.1046 375.105 69 374 69C372.895 69 372 68.1046 372 67C372 65.8954 372.895 65 374 65C375.105 65 376 65.8954 376 67ZM384 67C384 68.1046 383.105 69 382 69C380.895 69 380 68.1046 380 67C380 65.8954 380.895 65 382 65C383.105 65 384 65.8954 384 67ZM390 69C391.105 69 392 68.1046 392 67C392 65.8954 391.105 65 390 65C388.895 65 388 65.8954 388 67C388 68.1046 388.895 69 390 69Z" fill="black"/>
<path d="M196.617 73V62.873H200.311V61.022H190.79V62.873H194.475V73H196.617ZM201.787 73H203.837V63.9189H201.787V73ZM202.808 62.4414C203.563 62.4414 204.078 61.96 204.078 61.3042C204.078 60.6484 203.563 60.167 202.808 60.167C202.061 60.167 201.538 60.6484 201.538 61.3042C201.538 61.96 202.061 62.4414 202.808 62.4414ZM206.642 61.6943V63.9771H205.205V65.6206H206.642V70.5762C206.642 72.3359 207.472 73.0415 209.555 73.0415C209.954 73.0415 210.335 73 210.634 72.9419V71.3315C210.385 71.3564 210.227 71.373 209.937 71.373C209.074 71.373 208.692 70.9746 208.692 70.0781V65.6206H210.634V63.9771H208.692V61.6943H206.642ZM212.368 73H214.426V60.4077H212.368V73ZM220.435 65.3716C221.672 65.3716 222.485 66.2349 222.527 67.5796H218.252C218.343 66.2515 219.206 65.3716 220.435 65.3716ZM222.543 70.5015C222.244 71.1738 221.539 71.5474 220.518 71.5474C219.165 71.5474 218.293 70.6011 218.243 69.0903V68.9824H224.585V68.3184C224.585 65.4546 223.033 63.7363 220.443 63.7363C217.812 63.7363 216.177 65.5708 216.177 68.4927C216.177 71.4146 217.787 73.1826 220.46 73.1826C222.601 73.1826 224.104 72.1533 224.494 70.5015H222.543Z" fill="black"/>
<rect x="140" y="884" width="134" height="5" rx="2.5" fill="black"/>
<path d="M55.5056 832.698C55.9041 832.989 56.3855 832.897 56.9749 832.466L62.7522 828.232L68.5295 832.466C69.1189 832.897 69.6086 832.989 69.9988 832.698C70.3806 832.408 70.4719 831.926 70.2395 831.229L67.9734 824.439L73.7922 820.255C74.3816 819.832 74.614 819.392 74.4563 818.927C74.3069 818.479 73.8752 818.238 73.1282 818.247L65.9895 818.288L63.8064 811.473C63.5823 810.768 63.2336 810.419 62.7522 810.419C62.2708 810.419 61.9221 810.768 61.698 811.473L59.5149 818.288L52.3762 818.247C51.6375 818.238 51.1975 818.479 51.0481 818.927C50.8904 819.392 51.1228 819.832 51.7122 820.255L57.531 824.439L55.2732 831.229C55.0325 831.926 55.1238 832.408 55.5056 832.698Z" fill="#A8A6A7"/>
<path d="M52.6087 845.861H49.3079V839.821H48.2141V846.866H52.6087V845.861ZM55.3716 846.071C54.8003 846.071 54.3853 845.792 54.3853 845.314C54.3853 844.845 54.7173 844.596 55.4497 844.547L56.7486 844.464V844.908C56.7486 845.568 56.1626 846.071 55.3716 846.071ZM55.103 846.954C55.8013 846.954 56.3823 846.652 56.6997 846.119H56.7827V846.866H57.7935V843.234C57.7935 842.111 57.0415 841.447 55.7085 841.447C54.5025 841.447 53.6431 842.032 53.5357 842.946H54.5513C54.6685 842.57 55.0737 842.355 55.6597 842.355C56.3775 842.355 56.7486 842.672 56.7486 843.234V843.693L55.3081 843.776C54.0435 843.854 53.3306 844.406 53.3306 845.363C53.3306 846.334 54.0777 846.954 55.103 846.954ZM61.865 846.954C63.2078 846.954 64.0623 845.89 64.0623 844.205C64.0623 842.516 63.2127 841.461 61.865 841.461C61.1375 841.461 60.5125 841.813 60.2293 842.394H60.1462V839.474H59.0964V846.866H60.1072V846.027H60.1853C60.5027 846.613 61.1228 846.954 61.865 846.954ZM61.5623 842.404C62.4509 842.404 62.9832 843.087 62.9832 844.205C62.9832 845.333 62.4509 846.012 61.5623 846.012C60.6785 846.012 60.1316 845.323 60.1267 844.21C60.1316 843.097 60.6834 842.404 61.5623 842.404ZM67.2695 842.34C68.0459 842.34 68.5537 842.882 68.5781 843.717H65.8926C65.9512 842.887 66.4932 842.34 67.2695 842.34ZM68.5732 845.431C68.3779 845.846 67.9434 846.075 67.3086 846.075C66.4688 846.075 65.9268 845.485 65.8926 844.552V844.493H69.6475V844.127C69.6475 842.457 68.7539 841.447 67.2744 841.447C65.7754 841.447 64.8232 842.526 64.8232 844.225C64.8232 845.924 65.7559 846.969 67.2793 846.969C68.4951 846.969 69.3447 846.383 69.584 845.431H68.5732ZM70.7161 846.866H71.7659V839.474H70.7161V846.866ZM77.2868 846.866H78.3806V839.821H77.2917L75.4362 841.129V842.247L77.2038 840.997H77.2868V846.866Z" fill="#A8A6A7"/>
<path d="M152.506 832.698C152.904 832.989 153.385 832.897 153.975 832.466L159.752 828.232L165.53 832.466C166.119 832.897 166.609 832.989 166.999 832.698C167.381 832.408 167.472 831.926 167.24 831.229L164.973 824.439L170.792 820.255C171.382 819.832 171.614 819.392 171.456 818.927C171.307 818.479 170.875 818.238 170.128 818.247L162.99 818.288L160.806 811.473C160.582 810.768 160.234 810.419 159.752 810.419C159.271 810.419 158.922 810.768 158.698 811.473L156.515 818.288L149.376 818.247C148.637 818.238 148.198 818.479 148.048 818.927C147.89 819.392 148.123 819.832 148.712 820.255L154.531 824.439L152.273 831.229C152.032 831.926 152.124 832.408 152.506 832.698Z" fill="#A8A6A7"/>
<path d="M148.435 845.861H145.134V839.821H144.04V846.866H148.435V845.861ZM151.198 846.071C150.626 846.071 150.211 845.792 150.211 845.314C150.211 844.845 150.543 844.596 151.276 844.547L152.575 844.464V844.908C152.575 845.568 151.989 846.071 151.198 846.071ZM150.929 846.954C151.627 846.954 152.209 846.652 152.526 846.119H152.609V846.866H153.62V843.234C153.62 842.111 152.868 841.447 151.535 841.447C150.329 841.447 149.469 842.032 149.362 842.946H150.377C150.495 842.57 150.9 842.355 151.486 842.355C152.204 842.355 152.575 842.672 152.575 843.234V843.693L151.134 843.776C149.87 843.854 149.157 844.406 149.157 845.363C149.157 846.334 149.904 846.954 150.929 846.954ZM157.691 846.954C159.034 846.954 159.888 845.89 159.888 844.205C159.888 842.516 159.039 841.461 157.691 841.461C156.964 841.461 156.339 841.813 156.055 842.394H155.972V839.474H154.923V846.866H155.933V846.027H156.011C156.329 846.613 156.949 846.954 157.691 846.954ZM157.388 842.404C158.277 842.404 158.809 843.087 158.809 844.205C158.809 845.333 158.277 846.012 157.388 846.012C156.505 846.012 155.958 845.323 155.953 844.21C155.958 843.097 156.51 842.404 157.388 842.404ZM163.096 842.34C163.872 842.34 164.38 842.882 164.404 843.717H161.719C161.777 842.887 162.319 842.34 163.096 842.34ZM164.399 845.431C164.204 845.846 163.77 846.075 163.135 846.075C162.295 846.075 161.753 845.485 161.719 844.552V844.493H165.474V844.127C165.474 842.457 164.58 841.447 163.101 841.447C161.602 841.447 160.649 842.526 160.649 844.225C160.649 845.924 161.582 846.969 163.105 846.969C164.321 846.969 165.171 846.383 165.41 845.431H164.399ZM166.542 846.866H167.592V839.474H166.542V846.866ZM171.365 841.857V841.871H172.4V841.857C172.4 841.105 172.923 840.597 173.699 840.597C174.426 840.597 174.978 841.08 174.978 841.725C174.978 842.242 174.749 842.614 173.806 843.595L171.424 846.075V846.866H176.17V845.885H172.947V845.802L174.514 844.215C175.696 843.019 176.057 842.408 176.057 841.661C176.057 840.499 175.071 839.65 173.733 839.65C172.346 839.65 171.365 840.558 171.365 841.857Z" fill="#A8A6A7"/>
<path d="M247.506 832.698C247.904 832.989 248.385 832.897 248.975 832.466L254.752 828.232L260.53 832.466C261.119 832.897 261.609 832.989 261.999 832.698C262.381 832.408 262.472 831.926 262.24 831.229L259.973 824.439L265.792 820.255C266.382 819.832 266.614 819.392 266.456 818.927C266.307 818.479 265.875 818.238 265.128 818.247L257.99 818.288L255.806 811.473C255.582 810.768 255.234 810.419 254.752 810.419C254.271 810.419 253.922 810.768 253.698 811.473L251.515 818.288L244.376 818.247C243.637 818.238 243.198 818.479 243.048 818.927C242.89 819.392 243.123 819.832 243.712 820.255L249.531 824.439L247.273 831.229C247.032 831.926 247.124 832.408 247.506 832.698Z" fill="#A8A6A7"/>
<path d="M243.313 845.861H240.012V839.821H238.918V846.866H243.313V845.861ZM246.076 846.071C245.504 846.071 245.089 845.792 245.089 845.314C245.089 844.845 245.421 844.596 246.154 844.547L247.453 844.464V844.908C247.453 845.568 246.867 846.071 246.076 846.071ZM245.807 846.954C246.505 846.954 247.086 846.652 247.404 846.119H247.487V846.866H248.498V843.234C248.498 842.111 247.746 841.447 246.413 841.447C245.207 841.447 244.347 842.032 244.24 842.946H245.255C245.373 842.57 245.778 842.355 246.364 842.355C247.082 842.355 247.453 842.672 247.453 843.234V843.693L246.012 843.776C244.748 843.854 244.035 844.406 244.035 845.363C244.035 846.334 244.782 846.954 245.807 846.954ZM252.569 846.954C253.912 846.954 254.766 845.89 254.766 844.205C254.766 842.516 253.917 841.461 252.569 841.461C251.842 841.461 251.217 841.813 250.933 842.394H250.85V839.474H249.801V846.866H250.811V846.027H250.889C251.207 846.613 251.827 846.954 252.569 846.954ZM252.266 842.404C253.155 842.404 253.687 843.087 253.687 844.205C253.687 845.333 253.155 846.012 252.266 846.012C251.383 846.012 250.836 845.323 250.831 844.21C250.836 843.097 251.387 842.404 252.266 842.404ZM257.974 842.34C258.75 842.34 259.258 842.882 259.282 843.717H256.597C256.655 842.887 257.197 842.34 257.974 842.34ZM259.277 845.431C259.082 845.846 258.647 846.075 258.013 846.075C257.173 846.075 256.631 845.485 256.597 844.552V844.493H260.352V844.127C260.352 842.457 259.458 841.447 257.979 841.447C256.479 841.447 255.527 842.526 255.527 844.225C255.527 845.924 256.46 846.969 257.983 846.969C259.199 846.969 260.049 846.383 260.288 845.431H259.277ZM261.42 846.866H262.47V839.474H261.42V846.866ZM267.84 843.702H268.728C269.651 843.702 270.222 844.156 270.222 844.884C270.222 845.577 269.617 846.071 268.758 846.071C267.903 846.071 267.317 845.636 267.249 844.952H266.199C266.262 846.212 267.278 847.037 268.758 847.037C270.227 847.037 271.341 846.139 271.341 844.943C271.341 844 270.755 843.341 269.793 843.229V843.146C270.569 842.97 271.052 842.345 271.052 841.515C271.052 840.455 270.047 839.65 268.738 839.65C267.327 839.65 266.409 840.436 266.336 841.71H267.376C267.434 841.017 267.937 840.592 268.704 840.592C269.47 840.592 269.973 841.022 269.973 841.676C269.973 842.34 269.451 842.799 268.694 842.799H267.84V843.702Z" fill="#A8A6A7"/>
<path d="M343.506 832.698C343.904 832.989 344.385 832.897 344.975 832.466L350.752 828.232L356.53 832.466C357.119 832.897 357.609 832.989 357.999 832.698C358.381 832.408 358.472 831.926 358.24 831.229L355.973 824.439L361.792 820.255C362.382 819.832 362.614 819.392 362.456 818.927C362.307 818.479 361.875 818.238 361.128 818.247L353.99 818.288L351.806 811.473C351.582 810.768 351.234 810.419 350.752 810.419C350.271 810.419 349.922 810.768 349.698 811.473L347.515 818.288L340.376 818.247C339.637 818.238 339.198 818.479 339.048 818.927C338.89 819.392 339.123 819.832 339.712 820.255L345.531 824.439L343.273 831.229C343.032 831.926 343.124 832.408 343.506 832.698Z" fill="#A8A6A7"/>
<path d="M339.725 845.861H336.424V839.821H335.33V846.866H339.725V845.861ZM342.488 846.071C341.917 846.071 341.501 845.792 341.501 845.314C341.501 844.845 341.834 844.596 342.566 844.547L343.865 844.464V844.908C343.865 845.568 343.279 846.071 342.488 846.071ZM342.219 846.954C342.917 846.954 343.499 846.652 343.816 846.119H343.899V846.866H344.91V843.234C344.91 842.111 344.158 841.447 342.825 841.447C341.619 841.447 340.759 842.032 340.652 842.946H341.667C341.785 842.57 342.19 842.355 342.776 842.355C343.494 842.355 343.865 842.672 343.865 843.234V843.693L342.424 843.776C341.16 843.854 340.447 844.406 340.447 845.363C340.447 846.334 341.194 846.954 342.219 846.954ZM348.981 846.954C350.324 846.954 351.178 845.89 351.178 844.205C351.178 842.516 350.329 841.461 348.981 841.461C348.254 841.461 347.629 841.813 347.345 842.394H347.262V839.474H346.213V846.866H347.223V846.027H347.302C347.619 846.613 348.239 846.954 348.981 846.954ZM348.678 842.404C349.567 842.404 350.099 843.087 350.099 844.205C350.099 845.333 349.567 846.012 348.678 846.012C347.795 846.012 347.248 845.323 347.243 844.21C347.248 843.097 347.8 842.404 348.678 842.404ZM354.386 842.34C355.162 842.34 355.67 842.882 355.694 843.717H353.009C353.067 842.887 353.609 842.34 354.386 842.34ZM355.689 845.431C355.494 845.846 355.06 846.075 354.425 846.075C353.585 846.075 353.043 845.485 353.009 844.552V844.493H356.764V844.127C356.764 842.457 355.87 841.447 354.391 841.447C352.892 841.447 351.939 842.526 351.939 844.225C351.939 845.924 352.872 846.969 354.396 846.969C355.611 846.969 356.461 846.383 356.7 845.431H355.689ZM357.832 846.866H358.882V839.474H357.832V846.866ZM365.956 846.866H367.01V845.504H367.982V844.528H367.01V839.821H365.453C364.198 841.7 363.148 843.336 362.518 844.489V845.504H365.956V846.866ZM363.568 844.484C364.398 843.043 365.209 841.793 365.907 840.782H365.97V844.552H363.568V844.484Z" fill="#A8A6A7"/>
</g>
<defs>
<clipPath id="clip0">
<rect width="414" height="896" fill="white"/>
</clipPath>
</defs>
</svg>
