<svg id="Layer_1" data-name="Layer 1" xmlns="http://www.w3.org/2000/svg" viewBox="0 0 650.35 339.24"><defs><style>.cls-1{fill:#fff;}.cls-2{fill:#d87232;}</style></defs><title>NIKE_logo</title><polygon class="cls-1" points="198.73 176.34 153.85 176.34 158.95 98.32 129.8 176.34 88.12 176.34 154.25 0 198.6 0 193.48 79.09 223.19 0 264.87 0 198.73 176.34"/><polygon class="cls-1" points="204.15 176.34 270.28 0 311.96 0 245.83 176.34 204.15 176.34"/><path class="cls-2" d="M182.8,256.82c-58.25,68.4-113.19,159.41-64.66,201.33,47,40.61,105.81,16.56,145.89.53S747.1,250.27,747.1,250.27c4.27-2.13,3.47-4.8-1.87-3.47C743.07,247.34,263,377.46,263,377.46,202,394.56,132.57,357.28,182.8,256.82Z" transform="translate(-99.49 -141.26)"/><path class="cls-1" d="M600,170.65l11.2-29.39H484.06l-43.68,52.91,20.16-52.91H418.33l-65.6,176.35h41.68l28-73.75,1.91,73.75,127.9-.28,12.17-33.92H515.77l16-42.75h40.08l12.33-32.87H544.08l13.74-37.14ZM465.69,305.85,463,213.94l63-69.19Z" transform="translate(-99.49 -141.26)"/></svg>